<!--?xml version="1.0" encoding="utf-8"?-->
<!-- Svg Vector Icons : http://www.onlinewebfonts.com/icon -->

<svg version="1.1" xmlns="http://www.w3.org/2000/svg" xmlns:xlink="http://www.w3.org/1999/xlink" x="0px" y="0px" viewBox="0 0 256 256" enable-background="new 0 0 256 256" xml:space="preserve">
<metadata> Svg Vector Icons : http://www.onlinewebfonts.com/icon </metadata>
<g><g><path fill="#395795" data-title="Layer 0" xs="0" d="M17.4,10v236V10z"/><path fill="#395795" data-title="Layer 1" xs="1" d="M24.8,10v236V10z"/><path fill="#395795" data-title="Layer 2" xs="2" d="M32.1,10v236V10z"/><path fill="#395795" data-title="Layer 3" xs="3" d="M39.5,10v236V10z"/><path fill="#395795" data-title="Layer 4" xs="4" d="M46.9,10v236V10z"/><path fill="#395795" data-title="Layer 5" xs="5" d="M54.3,10v236V10z"/><path fill="#395795" data-title="Layer 6" xs="6" d="M61.6,10v236V10z"/><path fill="#395795" data-title="Layer 7" xs="7" d="M69,10v236V10z"/><path fill="#395795" data-title="Layer 8" xs="8" d="M76.4,10v236V10z"/><path fill="#395795" data-title="Layer 9" xs="9" d="M83.8,10v236V10z"/><path fill="#395795" data-title="Layer 10" xs="10" d="M91.1,10v236V10z"/><path fill="#395795" data-title="Layer 11" xs="11" d="M98.5,10v236V10z"/><path fill="#395795" data-title="Layer 12" xs="12" d="M105.9,10v236V10z"/><path fill="#395795" data-title="Layer 13" xs="13" d="M113.3,10v236V10z"/><path fill="#395795" data-title="Layer 14" xs="14" d="M120.6,10v236V10z"/><path fill="#395795" data-title="Layer 15" xs="15" d="M128,10v236V10z"/><path fill="#395795" data-title="Layer 16" xs="16" d="M135.4,10v236V10z"/><path fill="#395795" data-title="Layer 17" xs="17" d="M142.8,10v236V10z"/><path fill="#395795" data-title="Layer 18" xs="18" d="M150.1,10v236V10z"/><path fill="#395795" data-title="Layer 19" xs="19" d="M157.5,10v236V10z"/><path fill="#395795" data-title="Layer 20" xs="20" d="M164.9,10v236V10z"/><path fill="#395795" data-title="Layer 21" xs="21" d="M172.3,10v236V10z"/><path fill="#395795" data-title="Layer 22" xs="22" d="M179.6,10v236V10z"/><path fill="#395795" data-title="Layer 23" xs="23" d="M187,10v236V10z"/><path fill="#395795" data-title="Layer 24" xs="24" d="M194.4,10v236V10z"/><path fill="#395795" data-title="Layer 25" xs="25" d="M201.8,10v236V10z"/><path fill="#395795" data-title="Layer 26" xs="26" d="M209.1,10v236V10z"/><path fill="#395795" data-title="Layer 27" xs="27" d="M216.5,10v236V10z"/><path fill="#395795" data-title="Layer 28" xs="28" d="M223.9,10v236V10z"/><path fill="#395795" data-title="Layer 29" xs="29" d="M231.3,10v236V10z"/><path fill="#395795" data-title="Layer 30" xs="30" d="M238.6,10v236V10z"/><path fill="#395795" data-title="Layer 31" xs="31" d="M10,17.4h236H10z"/><path fill="#395795" data-title="Layer 32" xs="32" d="M10,24.7h236H10z"/><path fill="#395795" data-title="Layer 33" xs="33" d="M10,32.1h236H10z"/><path fill="#395795" data-title="Layer 34" xs="34" d="M10,39.5h236H10z"/><path fill="#395795" data-title="Layer 35" xs="35" d="M10,46.9h236H10z"/><path fill="#395795" data-title="Layer 36" xs="36" d="M10,54.2h236H10z"/><path fill="#395795" data-title="Layer 37" xs="37" d="M10,61.6h236H10z"/><path fill="#395795" data-title="Layer 38" xs="38" d="M10,69h236H10z"/><path fill="#395795" data-title="Layer 39" xs="39" d="M10,76.4h236H10z"/><path fill="#395795" data-title="Layer 40" xs="40" d="M10,83.7h236H10z"/><path fill="#395795" data-title="Layer 41" xs="41" d="M10,91.1h236H10z"/><path fill="#395795" data-title="Layer 42" xs="42" d="M10,98.5h236H10z"/><path fill="#395795" data-title="Layer 43" xs="43" d="M10,105.9h236H10z"/><path fill="#395795" data-title="Layer 44" xs="44" d="M10,113.2h236H10z"/><path fill="#395795" data-title="Layer 45" xs="45" d="M10,120.6h236H10z"/><path fill="#395795" data-title="Layer 46" xs="46" d="M10,128h236H10z"/><path fill="#395795" data-title="Layer 47" xs="47" d="M10,135.4h236H10z"/><path fill="#395795" data-title="Layer 48" xs="48" d="M10,142.7h236H10z"/><path fill="#395795" data-title="Layer 49" xs="49" d="M10,150.1h236H10z"/><path fill="#395795" data-title="Layer 50" xs="50" d="M10,157.5h236H10z"/><path fill="#395795" data-title="Layer 51" xs="51" d="M10,164.9h236H10z"/><path fill="#395795" data-title="Layer 52" xs="52" d="M10,172.2h236H10z"/><path fill="#395795" data-title="Layer 53" xs="53" d="M10,179.6h236H10z"/><path fill="#395795" data-title="Layer 54" xs="54" d="M10,187h236H10z"/><path fill="#395795" data-title="Layer 55" xs="55" d="M10,194.4h236H10z"/><path fill="#395795" data-title="Layer 56" xs="56" d="M10,201.7h236H10z"/><path fill="#395795" data-title="Layer 57" xs="57" d="M10,209.1h236H10z"/><path fill="#395795" data-title="Layer 58" xs="58" d="M10,216.5h236H10z"/><path fill="#395795" data-title="Layer 59" xs="59" d="M10,223.9h236H10z"/><path fill="#395795" data-title="Layer 60" xs="60" d="M10,231.2h236H10z"/><path fill="#395795" data-title="Layer 61" xs="61" d="M10,238.6h236H10z"/><path fill="#395795" data-title="Layer 62" xs="62" d="M209.1,10h-177C19.9,10,10,19.9,10,32.1v191.8C10,236,19.9,246,32.1,246h177c12.2,0,22.1-9.9,22.1-22.1V32.1C231.3,19.9,221.3,10,209.1,10z M201.8,216.5H39.5v-177h162.3V216.5z M69,142.7h103.3v14.8H69V142.7z M69,172.2h103.3V187H69V172.2z M83.8,76.4c0-12.2,9.9-22.1,22.1-22.1c12.2,0,22.1,9.9,22.1,22.1c0,12.2-9.9,22.1-22.1,22.1S83.8,88.6,83.8,76.4z M120.6,98.5H91.1C79,98.5,69,105.1,69,113.2V128h73.8v-14.8C142.8,105.1,132.8,98.5,120.6,98.5z"/></g></g>
</svg>